<svg width="39" height="40" viewBox="0 0 39 40" fill="none" xmlns="http://www.w3.org/2000/svg">
<path d="M34.125 26.6665V6.66655H4.875V26.6665H34.125ZM34.125 3.33322C34.9869 3.33322 35.8136 3.68441 36.4231 4.30953C37.0326 4.93465 37.375 5.7825 37.375 6.66655V26.6665C37.375 27.5506 37.0326 28.3984 36.4231 29.0236C35.8136 29.6487 34.9869 29.9999 34.125 29.9999H22.75V33.3332H26V36.6665H13V33.3332H16.25V29.9999H4.875C3.07125 29.9999 1.625 28.4999 1.625 26.6665V6.66655C1.625 4.81655 3.07125 3.33322 4.875 3.33322H34.125ZM8.125 9.99989H22.75V18.3332H8.125V9.99989ZM24.375 9.99989H30.875V13.3332H24.375V9.99989ZM30.875 14.9999V23.3332H24.375V14.9999H30.875ZM8.125 19.9999H14.625V23.3332H8.125V19.9999ZM16.25 19.9999H22.75V23.3332H16.25V19.9999Z" fill="white"/>
</svg>
