<svg width="40" height="25" viewBox="0 0 40 25" fill="none" xmlns="http://www.w3.org/2000/svg">
<path d="M34.525 3.04479C34.525 3.04479 30.3625 0.313895 25.4375 0L25 0.742885C29.45 1.65318 31.4875 2.96108 33.625 4.56195C29.95 2.99247 26.3125 1.51716 19.9875 1.51716C13.6625 1.51716 10.025 2.99247 6.35 4.56195C8.4875 2.96108 10.9125 1.5067 14.975 0.742885L14.5375 0C9.375 0.408064 5.45 3.04479 5.45 3.04479C5.45 3.04479 0.8 8.69491 0 19.7859C4.6875 24.3164 11.8125 24.3478 11.8125 24.3478L13.3 22.6842C10.775 21.9518 7.9125 20.6334 5.45 18.2583C8.3875 20.1207 12.8375 22.0669 20 22.0669C27.1625 22.0669 31.6 20.1312 34.55 18.2583C32.0875 20.6334 29.225 21.9518 26.7 22.6842L28.1875 24.3478C28.1875 24.3478 35.3125 24.3164 40 19.7859C39.175 8.69491 34.525 3.04479 34.525 3.04479ZM14.0625 16.7411C12.3 16.7411 10.875 15.3809 10.875 13.6963C10.875 12.0117 12.3 10.6515 14.0625 10.6515C15.825 10.6515 17.25 12.0117 17.25 13.6963C17.25 15.3809 15.825 16.7411 14.0625 16.7411ZM25.8875 16.7411C24.125 16.7411 22.7 15.3809 22.7 13.6963C22.7 12.0117 24.125 10.6515 25.8875 10.6515C27.65 10.6515 29.075 12.0117 29.075 13.6963C29.075 15.3809 27.6375 16.7411 25.8875 16.7411Z" fill="white"/>
</svg>
