<svg width="40" height="40" viewBox="0 0 40 40" fill="none" xmlns="http://www.w3.org/2000/svg">
<path d="M19.8558 0C9.70132 7.28292e-07 10.3354 4.42665 10.3354 4.42665L10.3468 9.01261H20.0369V10.3895H6.49785C6.49785 10.3895 0 9.64876 0 19.9484C-7.24499e-07 30.248 5.67147 29.8827 5.67147 29.8827H9.05624V25.1033C9.05624 25.1033 8.87379 19.4021 14.6371 19.4021C20.4005 19.4021 24.2481 19.4021 24.2481 19.4021C24.2481 19.4021 29.6479 19.4899 29.6479 14.1562C29.6479 8.82245 29.6479 5.33701 29.6479 5.33701C29.6479 5.33701 30.4677 0 19.8558 0ZM14.5126 3.08386C15.4767 3.08386 16.256 3.86716 16.256 4.83631C16.256 5.80546 15.4767 6.58876 14.5126 6.58876C13.5485 6.58877 12.7693 5.80546 12.7693 4.83631C12.7693 3.86716 13.5485 3.08386 14.5126 3.08386Z" fill="#4B8BBE"/>
<path d="M20.1441 40C30.2986 40 29.6645 35.5733 29.6645 35.5733L29.6532 30.9874H19.963V29.6105H33.5021C33.5021 29.6105 40 30.3512 40 20.0516C40 9.75202 34.3285 10.1173 34.3285 10.1173H30.9437V14.8967C30.9437 14.8967 31.1262 20.5978 25.3628 20.5978C19.5995 20.5978 15.7519 20.5978 15.7519 20.5978C15.7519 20.5978 10.3521 20.5101 10.3521 25.8438C10.3521 31.1775 10.3521 34.663 10.3521 34.663C10.3521 34.663 9.53225 40 20.1441 40ZM25.4873 36.9161C24.5232 36.9161 23.744 36.1328 23.744 35.1637C23.744 34.1945 24.5232 33.4112 25.4873 33.4112C26.4514 33.4112 27.2307 34.1945 27.2307 35.1637C27.2307 36.1328 26.4514 36.9161 25.4873 36.9161Z" fill="#FFD43B"/>
</svg>
