<svg width="36" height="35" viewBox="0 0 36 35" fill="none" xmlns="http://www.w3.org/2000/svg">
<path d="M32.3988 24.5V3.5H3.23988V24.5H32.3988ZM32.3988 0C33.258 0 34.0821 0.368749 34.6897 1.02513C35.2973 1.6815 35.6386 2.57174 35.6386 3.5V24.5C35.6386 25.4283 35.2973 26.3185 34.6897 26.9749C34.0821 27.6313 33.258 28 32.3988 28H21.0592V31.5H24.2991V35H11.3396V31.5H14.5794V28H3.23988C1.44174 28 0 26.425 0 24.5V3.5C0 1.5575 1.44174 0 3.23988 0H32.3988ZM6.47975 7H21.0592V15.75H6.47975V7ZM22.6791 7H29.1589V10.5H22.6791V7ZM29.1589 12.25V21H22.6791V12.25H29.1589ZM6.47975 17.5H12.9595V21H6.47975V17.5ZM14.5794 17.5H21.0592V21H14.5794V17.5Z" fill="#3E8DFF"/>
</svg>



