<svg width="79" height="50" viewBox="0 0 79 50" fill="none" xmlns="http://www.w3.org/2000/svg">
<path d="M67.5008 6.25268C67.5008 6.25268 59.3626 0.644607 49.7336 0L48.8782 1.52557C57.5785 3.39493 61.5621 6.08079 65.7412 9.36828C58.5561 6.14525 51.4443 3.1156 39.0781 3.1156C26.7119 3.1156 19.6002 6.14525 12.4151 9.36828C16.5942 6.08079 21.3353 3.09411 29.278 1.52557L28.4227 0C18.3293 0.837989 10.6554 6.25268 10.6554 6.25268C10.6554 6.25268 1.5641 17.8556 0 40.6317C9.16466 49.9355 23.095 50 23.095 50L26.0032 46.5836C21.0665 45.0795 15.47 42.3722 10.6554 37.4946C16.3986 41.3193 25.099 45.3159 39.1026 45.3159C53.1062 45.3159 61.7821 41.3408 67.5497 37.4946C62.7352 42.3722 57.1386 45.0795 52.2019 46.5836L55.1102 50C55.1102 50 69.0405 49.9355 78.2051 40.6317C76.5921 17.8556 67.5008 6.25268 67.5008 6.25268ZM27.494 34.379C24.0481 34.379 21.262 31.5857 21.262 28.1263C21.262 24.667 24.0481 21.8737 27.494 21.8737C30.9399 21.8737 33.726 24.667 33.726 28.1263C33.726 31.5857 30.9399 34.379 27.494 34.379ZM50.6134 34.379C47.1675 34.379 44.3814 31.5857 44.3814 28.1263C44.3814 24.667 47.1675 21.8737 50.6134 21.8737C54.0593 21.8737 56.8454 24.667 56.8454 28.1263C56.8454 31.5857 54.0349 34.379 50.6134 34.379Z" fill="white" fill-opacity="0.6"/>
</svg>
