<svg width="31" height="35" viewBox="0 0 31 35" fill="none" xmlns="http://www.w3.org/2000/svg">
<path d="M29.7634 1.90065C29.4881 1.73954 29.1439 1.72553 28.8532 1.85162L26.8032 2.74828C23.9041 4.02322 20.4696 3.70798 17.8994 1.93568C14.7632 -0.228912 10.5638 -0.607191 7.02218 0.947953L5.98188 1.41029C5.50762 0.646732 4.62031 0.177387 3.6565 0.177387H2.63915C1.18578 0.177387 0.00014829 1.25618 0.00014829 2.58716V32.5482C-0.0151502 33.8862 1.15519 34.986 2.62385 35H3.66415C5.13281 34.993 6.31844 33.9072 6.31079 32.5622V17.0598L7.84065 16.4013C10.7474 15.1264 14.1819 15.4416 16.752 17.2139C19.8959 19.3785 24.0877 19.7568 27.637 18.2016L29.6717 17.305C30.0006 17.1579 30.2071 16.8496 30.1995 16.5134V2.6362C30.1995 2.34198 30.0388 2.06177 29.7634 1.90065ZM4.49027 32.5552C4.49027 32.9405 4.14605 33.2557 3.72534 33.2557H2.67739C2.25668 33.2557 1.91247 32.9405 1.91247 32.5552V2.6362C1.91247 2.25091 2.25668 1.93568 2.67739 1.93568H3.72534C4.14605 1.93568 4.49027 2.25091 4.49027 2.6362V32.5552ZM28.2795 15.953L26.7879 16.6115C23.8888 17.8864 20.4543 17.5712 17.8918 15.7989C14.7479 13.6343 10.5485 13.256 7.00688 14.8112L6.31079 15.1124V3.1896L7.84065 2.53112C10.7474 1.25618 14.1819 1.57141 16.752 3.34372C19.8882 5.50831 24.08 5.88659 27.614 4.33144L28.2871 4.03022V15.953H28.2795Z" fill="#3E8DFF"/>
</svg>
