<svg width="35" height="35" viewBox="0 0 35 35" fill="none" xmlns="http://www.w3.org/2000/svg">
<path d="M17.5 2.91675C15.5849 2.91675 13.6885 3.29396 11.9192 4.02684C10.1498 4.75972 8.54217 5.83392 7.18799 7.18811C4.45308 9.92301 2.91663 13.6323 2.91663 17.5001C2.91663 23.9459 7.10204 29.4147 12.8916 31.3542C13.6208 31.4709 13.8541 31.0188 13.8541 30.6251C13.8541 30.2897 13.8541 29.3709 13.8541 28.1605C9.81454 29.0355 8.95413 26.2063 8.95413 26.2063C8.28329 24.5147 7.33538 24.0626 7.33538 24.0626C6.00829 23.1584 7.43746 23.1876 7.43746 23.1876C8.89579 23.2897 9.66871 24.6897 9.66871 24.6897C10.9375 26.9063 13.0812 26.2501 13.9125 25.9001C14.0437 24.9522 14.4229 24.3105 14.8312 23.9459C11.5937 23.5813 8.19579 22.3272 8.19579 16.7709C8.19579 15.1522 8.74996 13.8542 9.69788 12.8188C9.55204 12.4542 9.04163 10.9376 9.84371 8.96883C9.84371 8.96883 11.0687 8.57508 13.8541 10.4563C15.0062 10.1355 16.2604 9.97508 17.5 9.97508C18.7395 9.97508 19.9937 10.1355 21.1458 10.4563C23.9312 8.57508 25.1562 8.96883 25.1562 8.96883C25.9583 10.9376 25.4479 12.4542 25.302 12.8188C26.25 13.8542 26.8041 15.1522 26.8041 16.7709C26.8041 22.3417 23.3916 23.5667 20.1395 23.9313C20.6645 24.3834 21.1458 25.273 21.1458 26.6292C21.1458 28.5834 21.1458 30.1584 21.1458 30.6251C21.1458 31.0188 21.3791 31.4855 22.1229 31.3542C27.9125 29.4001 32.0833 23.9459 32.0833 17.5001C32.0833 15.585 31.7061 13.6886 30.9732 11.9193C30.2403 10.1499 29.1661 8.5423 27.8119 7.18811C26.4577 5.83392 24.8501 4.75972 23.0808 4.02684C21.3114 3.29396 19.4151 2.91675 17.5 2.91675Z" fill="white"/>
</svg>
