<svg width="48" height="35" viewBox="0 0 48 35" fill="none" xmlns="http://www.w3.org/2000/svg">
<path d="M20.7901 1.07415C20.7901 0.481217 20.2575 0 19.6012 0H7.59893C6.9427 0 6.41011 0.481217 6.41011 1.07415V28.8731C6.41011 29.466 6.9427 29.9472 7.59893 29.9472H19.6012C20.2575 29.9472 20.7901 29.466 20.7901 28.8731V1.07415ZM8.78775 2.14829H18.4124V27.9106H8.78775V2.14829ZM40.0394 11.9187C40.0394 11.3258 39.5068 10.8446 38.8506 10.8446H27.923C27.2668 10.8446 26.7342 11.3258 26.7342 11.9187V28.9848C26.7342 29.5777 27.2668 30.0589 27.923 30.0589H38.8506C39.5068 30.0589 40.0394 29.5777 40.0394 28.9848V11.9187ZM29.1023 12.9929H37.6618V27.9106H29.1023V12.9929ZM46.3354 32.8517H1.18882C0.532591 32.8517 0 33.3329 0 33.9259C0 34.5188 0.532591 35 1.18882 35H46.3354C46.9916 35 47.5242 34.5188 47.5242 33.9259C47.5242 33.3329 46.9916 32.8517 46.3354 32.8517Z" fill="#3E8DFF"/>
</svg>
