<svg width="50" height="35" viewBox="0 0 50 35" fill="none" xmlns="http://www.w3.org/2000/svg">
<path d="M25 0C23.0661 0 21.2115 0.921873 19.844 2.56282C18.4766 4.20376 17.7083 6.42936 17.7083 8.75C17.7083 11.0706 18.4766 13.2962 19.844 14.9372C21.2115 16.5781 23.0661 17.5 25 17.5C26.9339 17.5 28.7885 16.5781 30.156 14.9372C31.5234 13.2962 32.2917 11.0706 32.2917 8.75C32.2917 6.42936 31.5234 4.20376 30.156 2.56282C28.7885 0.921873 26.9339 0 25 0ZM25 5C25.8288 5 26.6237 5.39509 27.2097 6.09835C27.7958 6.80161 28.125 7.75544 28.125 8.75C28.125 9.74456 27.7958 10.6984 27.2097 11.4017C26.6237 12.1049 25.8288 12.5 25 12.5C24.1712 12.5 23.3763 12.1049 22.7903 11.4017C22.2042 10.6984 21.875 9.74456 21.875 8.75C21.875 7.75544 22.2042 6.80161 22.7903 6.09835C23.3763 5.39509 24.1712 5 25 5ZM11.4583 7.5C10.077 7.5 8.75224 8.15848 7.77549 9.33058C6.79873 10.5027 6.25 12.0924 6.25 13.75C6.25 16.1 7.35417 18.125 8.9375 19.2C9.6875 19.7 10.5417 20 11.4583 20C12.375 20 13.2292 19.7 13.9792 19.2C14.75 18.675 15.3958 17.925 15.875 17.025C14.3542 14.65 13.5417 11.75 13.5417 8.75C13.5417 8.525 13.5417 8.275 13.5417 8.05C12.9167 7.7 12.2083 7.5 11.4583 7.5ZM38.5417 7.5C37.7917 7.5 37.0833 7.7 36.4583 8.05C36.4583 8.275 36.4583 8.525 36.4583 8.75C36.4583 11.75 35.6458 14.65 34.125 17.025C34.375 17.5 34.6458 17.875 34.9583 18.25C35.2917 18.625 35.625 18.95 36.0208 19.2C36.7708 19.7 37.625 20 38.5417 20C39.4583 20 40.3125 19.7 41.0625 19.2C42.6458 18.125 43.75 16.1 43.75 13.75C43.75 12.0924 43.2013 10.5027 42.2245 9.33058C41.2478 8.15848 39.923 7.5 38.5417 7.5ZM25 22.5C20.125 22.5 10.4167 25.425 10.4167 31.25V35H39.5833V31.25C39.5833 25.425 29.875 22.5 25 22.5ZM9.8125 23.875C5.79167 24.45 0 26.9 0 31.25V35H6.25V30.175C6.25 27.65 7.6875 25.55 9.8125 23.875ZM40.1875 23.875C42.3125 25.55 43.75 27.65 43.75 30.175V35H50V31.25C50 26.9 44.2083 24.45 40.1875 23.875ZM25 27.5C28.1875 27.5 31.75 28.75 33.8125 30H16.1875C18.25 28.75 21.8125 27.5 25 27.5Z" fill="#3E8DFF"/>
</svg>
