<svg width="79" height="75" viewBox="0 0 79 75" fill="none" xmlns="http://www.w3.org/2000/svg">
<path d="M39.0311 0C19.0701 1.36555e-06 20.3166 8.29997 20.3166 8.29997L20.3389 16.8986H39.3871V19.4804H12.773C12.773 19.4804 0 18.0914 0 37.4032C-1.42417e-06 56.7149 11.1486 56.0301 11.1486 56.0301H17.8021V47.0687C17.8021 47.0687 17.4434 36.379 28.7726 36.379C40.1018 36.379 47.6651 36.379 47.6651 36.379C47.6651 36.379 58.2796 36.5435 58.2796 26.5428C58.2796 16.5421 58.2796 10.0069 58.2796 10.0069C58.2796 10.0069 59.8911 0 39.0311 0ZM28.5278 5.78224C30.423 5.78224 31.9547 7.25093 31.9547 9.06809C31.9547 10.8852 30.423 12.3539 28.5278 12.3539C26.6327 12.3539 25.1009 10.8852 25.1009 9.06809C25.1009 7.25093 26.6327 5.78224 28.5278 5.78224Z" fill="white" fill-opacity="0.38"/>
<path d="M39.5979 75C59.5589 75 58.3124 66.7 58.3124 66.7L58.2901 58.1013H39.2419V55.5196H65.856C65.856 55.5196 78.629 56.9085 78.629 37.5968C78.629 18.285 67.4804 18.9699 67.4804 18.9699H60.8269V27.9313C60.8269 27.9313 61.1856 38.6209 49.8564 38.6209C38.5272 38.6209 30.9639 38.6209 30.9639 38.6209C30.9639 38.6209 20.3494 38.4564 20.3494 48.4571C20.3494 58.4579 20.3494 64.9931 20.3494 64.9931C20.3494 64.9931 18.7378 75 39.5979 75ZM50.1012 69.2177C48.206 69.2177 46.6743 67.749 46.6743 65.9319C46.6743 64.1147 48.206 62.646 50.1012 62.646C51.9963 62.646 53.5281 64.1147 53.5281 65.9319C53.5281 67.749 51.9963 69.2177 50.1012 69.2177Z" fill="white" fill-opacity="0.6"/>
</svg>
